<?xml version="1.0" encoding="UTF-8"?>
<!DOCTYPE svg PUBLIC "-//W3C//DTD SVG 1.1//EN" "http://www.w3.org/Graphics/SVG/1.1/DTD/svg11.dtd">
<svg xmlns="http://www.w3.org/2000/svg" version="1.1" width="181px" height="97px" style="shape-rendering:geometricPrecision; text-rendering:geometricPrecision; image-rendering:optimizeQuality; fill-rule:evenodd; clip-rule:evenodd" xmlns:xlink="http://www.w3.org/1999/xlink">
<g><path style="opacity:1" fill="#202023" d="M -0.5,-0.5 C 59.8333,-0.5 120.167,-0.5 180.5,-0.5C 180.5,31.8333 180.5,64.1667 180.5,96.5C 120.167,96.5 59.8333,96.5 -0.5,96.5C -0.5,64.1667 -0.5,31.8333 -0.5,-0.5 Z"/></g>
<g><path style="opacity:1" fill="#e2e2e0" d="M 44.5,26.5 C 46.8333,26.5 49.1667,26.5 51.5,26.5C 48.5523,39.072 46.0523,51.7387 44,64.5C 39.8138,73.8714 33.4805,75.8714 25,70.5C 24.0715,66.7559 24.5715,63.2559 26.5,60C 28.8333,59.3333 31.1667,59.3333 33.5,60C 34.8491,60.7724 35.6824,61.9391 36,63.5C 38.1135,53.3176 40.2802,43.1509 42.5,33C 41.3521,31.274 40.1855,31.4407 39,33.5C 37.9571,36.7568 37.4571,40.0901 37.5,43.5C 35.8561,43.7135 34.3561,43.3802 33,42.5C 32.3333,39.8333 32.3333,37.1667 33,34.5C 36.4821,31.1608 40.3155,28.4942 44.5,26.5 Z"/></g>
<g><path style="opacity:1" fill="#e5e6e5" d="M 89.5,28.5 C 90.5,28.5 91.5,28.5 92.5,28.5C 90.6698,38.4756 89.0032,48.4756 87.5,58.5C 90.2919,58.5479 92.1253,57.2146 93,54.5C 95.3375,46.3128 96.8375,37.9795 97.5,29.5C 99.9201,29.7076 102.253,29.3742 104.5,28.5C 104.833,29.3333 105.167,30.1667 105.5,31C 102.995,40.0233 101.329,49.19 100.5,58.5C 102.39,58.7035 103.89,58.0368 105,56.5C 105.639,41.253 113.472,35.253 128.5,38.5C 127.889,44.2241 126.889,49.8908 125.5,55.5C 125.59,57.4251 126.59,58.5917 128.5,59C 127.43,63.2057 124.763,64.539 120.5,63C 119.013,59.8763 117.347,59.8763 115.5,63C 111.611,64.1404 108.278,63.307 105.5,60.5C 101.222,64.3652 97.0552,64.3652 93,60.5C 87.8909,64.8137 83.2243,64.4804 79,59.5C 73.3271,64.3011 67.4937,64.6345 61.5,60.5C 57.2219,64.3652 53.0552,64.3652 49,60.5C 48.3552,54.5689 49.1885,48.9023 51.5,43.5C 51.3793,42.1055 51.046,40.7722 50.5,39.5C 52.9864,37.422 53.9864,34.7553 53.5,31.5C 56.1272,30.9084 58.7938,30.5751 61.5,30.5C 61.2767,32.3417 60.9434,34.175 60.5,36C 60.8443,37.3651 61.5109,38.5318 62.5,39.5C 61.675,40.3857 60.675,40.719 59.5,40.5C 58.4938,46.5122 57.4938,52.5122 56.5,58.5C 58.3904,58.7035 59.8904,58.0368 61,56.5C 60.7964,49.0759 63.6297,43.2425 69.5,39C 78.8966,36.9911 81.7299,40.4911 78,49.5C 75.6026,51.7823 72.7693,53.1156 69.5,53.5C 68.8796,59.4663 71.2129,60.9663 76.5,58C 77.6667,56.8333 78.8333,55.6667 80,54.5C 82.5807,46.4239 84.0807,38.0906 84.5,29.5C 86.4147,29.7845 88.0813,29.4511 89.5,28.5 Z"/></g>
<g><path style="opacity:1" fill="#372d36" d="M 73.5,41.5 C 76.0577,44.3276 75.7244,47.1609 72.5,50C 71.5,50.6667 70.5,50.6667 69.5,50C 70.1672,46.8331 71.5006,43.9998 73.5,41.5 Z"/></g>
<g><path style="opacity:1" fill="#282429" d="M 113.5,57.5 C 113.423,53.7852 113.756,50.1185 114.5,46.5C 115.31,43.3538 117.31,41.6871 120.5,41.5C 120.091,46.4519 119.091,51.2853 117.5,56C 116.445,58.055 115.112,58.555 113.5,57.5 Z"/></g>
<g><path style="opacity:1" fill="#ce8e56" d="M 114.5,46.5 C 113.756,50.1185 113.423,53.7852 113.5,57.5C 112.842,56.2067 112.508,54.7067 112.5,53C 112.336,50.4563 113.003,48.2897 114.5,46.5 Z"/></g>
<g><path style="opacity:1" fill="#12cbb6" d="M 131.5,55.5 C 137.313,55.062 138.98,57.562 136.5,63C 129.745,63.7558 128.078,61.2558 131.5,55.5 Z"/></g>
<g><path style="opacity:1" fill="#31282f" d="M 30.5,63.5 C 32.1172,64.038 33.7839,64.3713 35.5,64.5C 35.6653,67.5036 34.3319,69.5036 31.5,70.5C 27.9667,68.5798 27.6334,66.2465 30.5,63.5 Z"/></g>
</svg>
